<?xml version="1.0" encoding="UTF-8"?>
<svg id="Calque_2" data-name="Calque 2" xmlns="http://www.w3.org/2000/svg" viewBox="0 0 318.8 172.92">
  <defs>
    <style>
      .cls-1 {
        fill: #fff;
        stroke-width: 0px;
      }
    </style>
  </defs>
  <g id="Calque_1-2" data-name="Calque 1">
    <g>
      <path class="cls-1" d="m183,65.18v.11c0,12.31-8.21,16.27-20.83,16.27h-12.41c-.83,0-1.5.67-1.5,1.5v18.93c0,.83-.67,1.5-1.5,1.5h-6.47c-.83,0-1.5-.67-1.5-1.5v-51.43c0-.83.67-1.5,1.5-1.5h21.95c12.47,0,20.75,3.88,20.75,16.12Zm-9.62.08c0-7.18-4.41-8.74-11.4-8.74h-12.22c-.83,0-1.5.67-1.5,1.5v14.6c0,.83.67,1.5,1.5,1.5h12.22c6.99,0,11.4-1.63,11.4-8.74v-.11Z"/>
      <path class="cls-1" d="m209.15,66.9v4.57c0,.83-.67,1.5-1.5,1.5h-2.23c-6.61,0-9.39,4.6-9.39,10.6v18.42c0,.83-.67,1.5-1.5,1.5h-5.78c-.83,0-1.5-.67-1.5-1.5v-35.01c0-.83.67-1.5,1.5-1.5h5.48c.83,0,1.5.67,1.5,1.5v.49c0,1.33,1.63,2.02,2.55,1.06,1.94-2.01,4.63-3.13,8.01-3.13h1.35c.83,0,1.5.67,1.5,1.5Z"/>
      <path class="cls-1" d="m213.27,55.21h6.01c.83,0,1.5.67,1.5,1.5v5.59c0,.83-.67,1.5-1.5,1.5h-6.01c-.83,0-1.5-.67-1.5-1.5v-5.59c0-.83.67-1.5,1.5-1.5Zm.11,10.27h5.78c.83,0,1.5.67,1.5,1.5v35.01c0,.83-.67,1.5-1.5,1.5h-5.78c-.83,0-1.5-.67-1.5-1.5v-35.01c0-.83.67-1.5,1.5-1.5Z"/>
      <path class="cls-1" d="m226.53,89.81h5.03c.73,0,1.36.52,1.48,1.24.76,4.81,4.23,6.21,9.71,6.21,5.17,0,8.13-1.56,8.13-4.94,0-2.22-1.22-3.27-4.49-4.11-3.38-.84-9.01-1.27-13.3-2.51-4.41-1.31-7.07-4.04-7.07-9.12,0-7.2,6.16-11.2,15.47-11.2s15.61,3.25,16.8,10.91c.14.91-.56,1.74-1.48,1.74h-5.05c-.72,0-1.33-.52-1.47-1.23-.79-3.96-3.68-5.35-8.5-5.35-4.45,0-7.18,1.38-7.18,4.33,0,2.07,1.22,3.2,4.41,3.96,3.46.87,9.43,1.49,13.42,2.62,4.37,1.2,6.96,3.93,6.96,9.12,0,7.78-6.61,11.85-16.68,11.85s-16.51-3.22-17.67-11.84c-.12-.89.59-1.68,1.49-1.68Z"/>
      <path class="cls-1" d="m318.8,78.09v23.9c0,.83-.67,1.5-1.5,1.5h-5.78c-.83,0-1.5-.67-1.5-1.5v-22.55c0-4.33-1.67-7.12-6.38-7.12-5.59,0-8.1,3.95-8.1,9.06v20.61c0,.83-.67,1.5-1.5,1.5h-5.78c-.83,0-1.5-.67-1.5-1.5v-22.55c0-4.33-1.67-7.12-6.31-7.12-5.55,0-8.17,4.18-8.17,9.47v20.2c0,.83-.67,1.5-1.5,1.5h-5.78c-.83,0-1.5-.67-1.5-1.5v-34.29c0-.83.67-1.5,1.5-1.5h5.48c.83,0,1.5.67,1.5,1.5h0c0,1.33,1.59,1.99,2.55,1.06,2.19-2.11,5.16-3.38,9-3.38,4.53,0,7.77,1.69,9.73,4.56.57.84,1.79.84,2.43.05,2.33-2.87,5.86-4.62,10.68-4.62,8.02,0,12.43,4.85,12.43,12.72Z"/>
    </g>
    <g>
      <path class="cls-1" d="m44.39,98.36L0,2.17v168.01s44.39-71.83,44.39-71.83ZM2.23,162.36V12.29s39.64,85.91,39.64,85.91L2.23,162.36Z"/>
      <path class="cls-1" d="m46.5,99.71L2.25,172.92l105.57-69.31-61.31-3.91Zm54.5,5.72L9.21,165.69l38.48-63.66,53.31,3.4Z"/>
      <path class="cls-1" d="m108,101.18L1.83,0l44.9,97.3,61.27,3.88Zm-5.98-2.62l-53.83-3.41L8.74,9.66l93.28,88.9Z"/>
    </g>
    <g>
      <path class="cls-1" d="m144.56,116.35c-.16-.07-.33-.12-.51-.16.04-.01.08-.03.11-.04.36-.16.65-.4.86-.72.21-.32.32-.71.32-1.17,0-.7-.26-1.24-.77-1.62-.52-.38-1.24-.57-2.18-.57h-3.63v8.52h3.87c1.06,0,1.85-.2,2.37-.6.52-.4.79-.96.79-1.68,0-.49-.11-.89-.32-1.22-.22-.33-.52-.58-.91-.74Zm-2.23-3.54c.67,0,1.19.13,1.57.38.37.26.56.64.56,1.16s-.19.9-.56,1.16c-.37.26-.89.39-1.57.39h-2.68v-3.09h2.68Zm1.98,6.65c-.39.26-.96.38-1.69.38h-2.97v-3.2h2.97c.74,0,1.3.13,1.69.38.39.26.59.66.59,1.21s-.2.97-.59,1.22Z"/>
      <path class="cls-1" d="m156.43,112.07l-3.84,8.52h.92l1-2.28h4.69l1,2.28h.94l-3.84-8.52h-.88Zm-1.59,5.51l2.02-4.58,2.02,4.58h-4.05Z"/>
      <path class="cls-1" d="m169.69,113.81c.32-.32.7-.57,1.13-.74.43-.17.9-.26,1.4-.26s.93.08,1.34.24c.42.16.8.42,1.14.77l.56-.57c-.37-.41-.82-.72-1.36-.93-.54-.21-1.11-.31-1.72-.31s-1.22.11-1.75.32c-.54.22-1,.52-1.4.91s-.7.85-.92,1.38c-.22.53-.33,1.1-.33,1.73s.11,1.2.33,1.73c.22.53.53.99.92,1.38.39.39.86.69,1.39.91.54.22,1.12.32,1.75.32s1.19-.11,1.73-.32c.54-.21.99-.52,1.36-.94l-.56-.57c-.34.36-.72.62-1.14.78-.42.16-.86.24-1.34.24-.5,0-.97-.09-1.4-.26-.43-.17-.81-.42-1.13-.74-.32-.32-.57-.69-.75-1.12-.18-.43-.27-.89-.27-1.41s.09-.98.27-1.41c.18-.43.43-.8.75-1.12Z"/>
      <polygon class="cls-1" points="190.12 112.07 189.1 112.07 184.17 117.22 184.17 112.07 183.28 112.07 183.28 120.6 184.17 120.6 184.17 118.35 185.89 116.59 189.32 120.6 190.38 120.6 186.49 115.94 190.12 112.07"/>
      <polygon class="cls-1" points="205.86 112.85 208.82 112.85 208.82 120.6 209.71 120.6 209.71 112.85 212.66 112.85 212.66 112.07 205.86 112.07 205.86 112.85"/>
      <path class="cls-1" d="m226.89,113.23c-.4-.39-.86-.69-1.4-.91-.54-.21-1.12-.32-1.75-.32s-1.23.11-1.76.32c-.54.22-1,.52-1.4.91s-.7.85-.92,1.38c-.22.52-.33,1.1-.33,1.72s.11,1.2.33,1.72c.22.52.53.98.92,1.38.4.39.86.7,1.4.91.54.22,1.13.32,1.76.32s1.22-.11,1.75-.32c.54-.21,1-.52,1.4-.91s.7-.85.92-1.38c.22-.53.33-1.1.33-1.73s-.11-1.2-.33-1.73c-.22-.53-.53-.99-.92-1.38Zm.1,4.51c-.18.43-.42.8-.74,1.12s-.69.57-1.12.74c-.43.17-.89.26-1.4.26s-.97-.09-1.4-.26c-.43-.17-.81-.42-1.12-.74-.32-.32-.56-.7-.74-1.13-.18-.43-.27-.9-.27-1.4s.09-.98.27-1.41c.18-.43.43-.8.74-1.12.32-.32.69-.57,1.12-.74.43-.17.9-.26,1.4-.26s.97.09,1.4.26c.43.17.8.42,1.12.74.32.32.56.69.74,1.12.18.43.26.89.26,1.41s-.09.98-.26,1.41Z"/>
      <path class="cls-1" d="m251.3,116.35c-.16-.07-.33-.12-.51-.16.04-.01.08-.03.11-.04.36-.16.65-.4.86-.72s.32-.71.32-1.17c0-.7-.26-1.24-.77-1.62-.52-.38-1.24-.57-2.18-.57h-3.63v8.52h3.87c1.06,0,1.85-.2,2.37-.6.52-.4.79-.96.79-1.68,0-.49-.11-.89-.32-1.22-.22-.33-.52-.58-.91-.74Zm-2.23-3.54c.67,0,1.19.13,1.57.38.37.26.56.64.56,1.16s-.19.9-.56,1.16c-.37.26-.89.39-1.57.39h-2.68v-3.09h2.68Zm1.98,6.65c-.39.26-.96.38-1.69.38h-2.97v-3.2h2.97c.74,0,1.3.13,1.69.38.39.26.59.66.59,1.21s-.2.97-.59,1.22Z"/>
      <path class="cls-1" d="m263.17,112.07l-3.84,8.52h.92l1-2.28h4.69l1,2.28h.94l-3.84-8.52h-.88Zm-1.59,5.51l2.02-4.58,2.02,4.58h-4.05Z"/>
      <path class="cls-1" d="m279.82,116.6c-.31-.17-.64-.3-1.01-.41-.36-.11-.73-.2-1.1-.29-.37-.09-.71-.19-1.01-.3-.31-.11-.56-.27-.74-.47-.19-.2-.28-.47-.28-.8,0-.29.08-.55.23-.79s.4-.42.73-.55c.33-.14.74-.21,1.25-.21.38,0,.77.06,1.17.17.4.11.79.29,1.15.54l.3-.72c-.34-.24-.74-.42-1.2-.55-.46-.13-.93-.2-1.4-.2-.71,0-1.3.11-1.75.32-.46.22-.79.5-1.01.85-.22.35-.33.74-.33,1.16,0,.45.09.82.28,1.1.19.28.44.51.74.68.31.17.65.31,1.01.41.37.1.74.2,1.1.29.37.09.7.19,1.01.31.3.12.55.28.74.48.19.2.28.47.28.8,0,.28-.08.53-.23.75-.16.23-.4.41-.73.54-.33.13-.76.2-1.29.2s-1.08-.1-1.58-.3c-.5-.2-.9-.44-1.19-.74l-.35.69c.31.32.75.59,1.33.8.57.21,1.17.31,1.79.31.72,0,1.31-.11,1.77-.32.46-.21.8-.5,1.03-.85s.34-.74.34-1.15c0-.45-.09-.81-.28-1.08-.19-.28-.44-.5-.74-.66Z"/>
      <rect class="cls-1" x="288.89" y="112.07" width=".89" height="8.52"/>
      <path class="cls-1" d="m299.78,113.81c.32-.32.7-.57,1.13-.74.43-.17.9-.26,1.4-.26s.93.08,1.34.24c.42.16.8.42,1.14.77l.56-.57c-.37-.41-.82-.72-1.36-.93-.54-.21-1.11-.31-1.72-.31s-1.22.11-1.75.32c-.54.22-1,.52-1.4.91s-.7.85-.92,1.38c-.22.53-.33,1.1-.33,1.73s.11,1.2.33,1.73c.22.53.53.99.92,1.38.39.39.86.69,1.39.91.54.22,1.12.32,1.75.32s1.19-.11,1.73-.32c.54-.21.99-.52,1.36-.94l-.56-.57c-.34.36-.72.62-1.14.78-.42.16-.86.24-1.34.24-.5,0-.97-.09-1.4-.26-.43-.17-.81-.42-1.13-.74-.32-.32-.57-.69-.75-1.12-.18-.43-.27-.89-.27-1.41s.09-.98.27-1.41c.18-.43.43-.8.75-1.12Z"/>
      <path class="cls-1" d="m318.52,117.26c-.19-.28-.44-.5-.74-.66-.31-.17-.64-.3-1.01-.41-.36-.11-.73-.2-1.1-.29s-.71-.19-1.01-.3c-.31-.11-.56-.27-.74-.47-.19-.2-.28-.47-.28-.8,0-.29.08-.55.23-.79.16-.23.4-.42.73-.55.33-.14.74-.21,1.25-.21.38,0,.77.06,1.17.17.4.11.79.29,1.15.54l.3-.72c-.34-.24-.74-.42-1.2-.55-.46-.13-.93-.2-1.4-.2-.71,0-1.3.11-1.75.32-.46.22-.79.5-1.01.85-.22.35-.33.74-.33,1.16,0,.45.09.82.28,1.1.19.28.44.51.74.68.31.17.65.31,1.01.41.37.1.74.2,1.1.29.37.09.7.19,1.01.31.3.12.55.28.74.48.19.2.28.47.28.8,0,.28-.08.53-.23.75-.16.23-.4.41-.73.54-.33.13-.76.2-1.29.2s-1.08-.1-1.58-.3c-.5-.2-.9-.44-1.19-.74l-.35.69c.31.32.75.59,1.33.8.57.21,1.17.31,1.79.31.72,0,1.31-.11,1.77-.32.46-.21.8-.5,1.03-.85.22-.35.34-.74.34-1.15,0-.45-.09-.81-.28-1.08Z"/>
    </g>
  </g>
</svg>